<mxfile host="app.diagrams.net" modified="2024-05-01T06:52:46.016Z" agent="Mozilla/5.0 (Macintosh; Intel Mac OS X 10_15_7) AppleWebKit/537.36 (KHTML, like Gecko) Chrome/124.0.0.0 Safari/537.36 Edg/124.0.0.0" etag="G_uEau-1Fhw3d2G2t9Dv" version="24.3.1" type="device">
  <diagram name="第 1 页" id="j3i_pElChc7TgLqjVfWg">
    <mxGraphModel dx="906" dy="493" grid="1" gridSize="10" guides="1" tooltips="1" connect="1" arrows="1" fold="1" page="1" pageScale="1" pageWidth="827" pageHeight="1169" math="0" shadow="0">
      <root>
        <mxCell id="0" />
        <mxCell id="1" parent="0" />
        <mxCell id="I8jyded9IZchCvWG2gri-24" style="edgeStyle=orthogonalEdgeStyle;rounded=0;orthogonalLoop=1;jettySize=auto;html=1;exitX=0.5;exitY=1;exitDx=0;exitDy=0;entryX=0.5;entryY=0;entryDx=0;entryDy=0;" edge="1" parent="1" source="I8jyded9IZchCvWG2gri-1" target="I8jyded9IZchCvWG2gri-3">
          <mxGeometry relative="1" as="geometry" />
        </mxCell>
        <mxCell id="I8jyded9IZchCvWG2gri-1" value="start" style="ellipse;whiteSpace=wrap;html=1;" vertex="1" parent="1">
          <mxGeometry x="350" y="120" width="100" height="60" as="geometry" />
        </mxCell>
        <mxCell id="I8jyded9IZchCvWG2gri-26" style="edgeStyle=orthogonalEdgeStyle;rounded=0;orthogonalLoop=1;jettySize=auto;html=1;exitX=1;exitY=0.5;exitDx=0;exitDy=0;entryX=1;entryY=0.5;entryDx=0;entryDy=0;" edge="1" parent="1" source="I8jyded9IZchCvWG2gri-2" target="I8jyded9IZchCvWG2gri-3">
          <mxGeometry relative="1" as="geometry">
            <Array as="points">
              <mxPoint x="550" y="343" />
              <mxPoint x="550" y="230" />
            </Array>
          </mxGeometry>
        </mxCell>
        <mxCell id="I8jyded9IZchCvWG2gri-27" style="edgeStyle=orthogonalEdgeStyle;rounded=0;orthogonalLoop=1;jettySize=auto;html=1;exitX=0.5;exitY=1;exitDx=0;exitDy=0;entryX=0.5;entryY=0;entryDx=0;entryDy=0;" edge="1" parent="1" source="I8jyded9IZchCvWG2gri-2" target="I8jyded9IZchCvWG2gri-6">
          <mxGeometry relative="1" as="geometry" />
        </mxCell>
        <mxCell id="I8jyded9IZchCvWG2gri-2" value="account and password is correct" style="rhombus;whiteSpace=wrap;html=1;" vertex="1" parent="1">
          <mxGeometry x="350" y="298" width="100" height="90" as="geometry" />
        </mxCell>
        <mxCell id="I8jyded9IZchCvWG2gri-25" style="edgeStyle=orthogonalEdgeStyle;rounded=0;orthogonalLoop=1;jettySize=auto;html=1;exitX=0.5;exitY=1;exitDx=0;exitDy=0;entryX=0.5;entryY=0;entryDx=0;entryDy=0;" edge="1" parent="1" source="I8jyded9IZchCvWG2gri-3" target="I8jyded9IZchCvWG2gri-2">
          <mxGeometry relative="1" as="geometry" />
        </mxCell>
        <mxCell id="I8jyded9IZchCvWG2gri-3" value="login" style="rounded=0;whiteSpace=wrap;html=1;" vertex="1" parent="1">
          <mxGeometry x="340" y="200" width="120" height="60" as="geometry" />
        </mxCell>
        <mxCell id="I8jyded9IZchCvWG2gri-5" value="No" style="text;html=1;align=center;verticalAlign=middle;resizable=0;points=[];autosize=1;strokeColor=none;fillColor=none;" vertex="1" parent="1">
          <mxGeometry x="550" y="268" width="40" height="30" as="geometry" />
        </mxCell>
        <mxCell id="I8jyded9IZchCvWG2gri-15" style="edgeStyle=orthogonalEdgeStyle;rounded=0;orthogonalLoop=1;jettySize=auto;html=1;exitX=0.5;exitY=1;exitDx=0;exitDy=0;" edge="1" parent="1" source="I8jyded9IZchCvWG2gri-6" target="I8jyded9IZchCvWG2gri-7">
          <mxGeometry relative="1" as="geometry" />
        </mxCell>
        <mxCell id="I8jyded9IZchCvWG2gri-18" style="edgeStyle=orthogonalEdgeStyle;rounded=0;orthogonalLoop=1;jettySize=auto;html=1;exitX=0.5;exitY=1;exitDx=0;exitDy=0;entryX=0.5;entryY=0;entryDx=0;entryDy=0;" edge="1" parent="1" source="I8jyded9IZchCvWG2gri-6" target="I8jyded9IZchCvWG2gri-8">
          <mxGeometry relative="1" as="geometry" />
        </mxCell>
        <mxCell id="I8jyded9IZchCvWG2gri-19" style="edgeStyle=orthogonalEdgeStyle;rounded=0;orthogonalLoop=1;jettySize=auto;html=1;exitX=0.5;exitY=1;exitDx=0;exitDy=0;" edge="1" parent="1" source="I8jyded9IZchCvWG2gri-6" target="I8jyded9IZchCvWG2gri-9">
          <mxGeometry relative="1" as="geometry" />
        </mxCell>
        <mxCell id="I8jyded9IZchCvWG2gri-20" style="edgeStyle=orthogonalEdgeStyle;rounded=0;orthogonalLoop=1;jettySize=auto;html=1;exitX=0.5;exitY=1;exitDx=0;exitDy=0;entryX=0.5;entryY=0;entryDx=0;entryDy=0;" edge="1" parent="1" source="I8jyded9IZchCvWG2gri-6" target="I8jyded9IZchCvWG2gri-10">
          <mxGeometry relative="1" as="geometry" />
        </mxCell>
        <mxCell id="I8jyded9IZchCvWG2gri-6" value="index" style="rounded=0;whiteSpace=wrap;html=1;" vertex="1" parent="1">
          <mxGeometry x="340" y="430" width="120" height="60" as="geometry" />
        </mxCell>
        <mxCell id="I8jyded9IZchCvWG2gri-16" style="edgeStyle=orthogonalEdgeStyle;rounded=0;orthogonalLoop=1;jettySize=auto;html=1;exitX=0.5;exitY=1;exitDx=0;exitDy=0;" edge="1" parent="1" source="I8jyded9IZchCvWG2gri-7" target="I8jyded9IZchCvWG2gri-11">
          <mxGeometry relative="1" as="geometry" />
        </mxCell>
        <mxCell id="I8jyded9IZchCvWG2gri-7" value="user center" style="rounded=0;whiteSpace=wrap;html=1;" vertex="1" parent="1">
          <mxGeometry x="134" y="554.5" width="120" height="60" as="geometry" />
        </mxCell>
        <mxCell id="I8jyded9IZchCvWG2gri-21" style="edgeStyle=orthogonalEdgeStyle;rounded=0;orthogonalLoop=1;jettySize=auto;html=1;exitX=0.5;exitY=1;exitDx=0;exitDy=0;entryX=0.5;entryY=0;entryDx=0;entryDy=0;" edge="1" parent="1" source="I8jyded9IZchCvWG2gri-8" target="I8jyded9IZchCvWG2gri-11">
          <mxGeometry relative="1" as="geometry" />
        </mxCell>
        <mxCell id="I8jyded9IZchCvWG2gri-8" value="website admin" style="rounded=0;whiteSpace=wrap;html=1;" vertex="1" parent="1">
          <mxGeometry x="278" y="554.5" width="120" height="60" as="geometry" />
        </mxCell>
        <mxCell id="I8jyded9IZchCvWG2gri-22" style="edgeStyle=orthogonalEdgeStyle;rounded=0;orthogonalLoop=1;jettySize=auto;html=1;exitX=0.5;exitY=1;exitDx=0;exitDy=0;" edge="1" parent="1" source="I8jyded9IZchCvWG2gri-9">
          <mxGeometry relative="1" as="geometry">
            <mxPoint x="400" y="680" as="targetPoint" />
          </mxGeometry>
        </mxCell>
        <mxCell id="I8jyded9IZchCvWG2gri-9" value="system admin" style="rounded=0;whiteSpace=wrap;html=1;" vertex="1" parent="1">
          <mxGeometry x="424" y="554.5" width="120" height="60" as="geometry" />
        </mxCell>
        <mxCell id="I8jyded9IZchCvWG2gri-23" style="edgeStyle=orthogonalEdgeStyle;rounded=0;orthogonalLoop=1;jettySize=auto;html=1;exitX=0.5;exitY=1;exitDx=0;exitDy=0;entryX=0.5;entryY=0;entryDx=0;entryDy=0;" edge="1" parent="1" source="I8jyded9IZchCvWG2gri-10" target="I8jyded9IZchCvWG2gri-11">
          <mxGeometry relative="1" as="geometry" />
        </mxCell>
        <mxCell id="I8jyded9IZchCvWG2gri-10" value="log admin" style="rounded=0;whiteSpace=wrap;html=1;" vertex="1" parent="1">
          <mxGeometry x="574" y="554.5" width="120" height="60" as="geometry" />
        </mxCell>
        <mxCell id="I8jyded9IZchCvWG2gri-14" style="edgeStyle=orthogonalEdgeStyle;rounded=0;orthogonalLoop=1;jettySize=auto;html=1;exitX=0.5;exitY=1;exitDx=0;exitDy=0;entryX=0.5;entryY=0;entryDx=0;entryDy=0;" edge="1" parent="1" source="I8jyded9IZchCvWG2gri-11" target="I8jyded9IZchCvWG2gri-13">
          <mxGeometry relative="1" as="geometry" />
        </mxCell>
        <mxCell id="I8jyded9IZchCvWG2gri-11" value="logout" style="rounded=0;whiteSpace=wrap;html=1;" vertex="1" parent="1">
          <mxGeometry x="340" y="680" width="120" height="60" as="geometry" />
        </mxCell>
        <mxCell id="I8jyded9IZchCvWG2gri-13" value="end" style="ellipse;whiteSpace=wrap;html=1;" vertex="1" parent="1">
          <mxGeometry x="350" y="780" width="100" height="60" as="geometry" />
        </mxCell>
        <mxCell id="I8jyded9IZchCvWG2gri-28" value="yes" style="text;html=1;align=center;verticalAlign=middle;resizable=0;points=[];autosize=1;strokeColor=none;fillColor=none;" vertex="1" parent="1">
          <mxGeometry x="400" y="388" width="40" height="30" as="geometry" />
        </mxCell>
      </root>
    </mxGraphModel>
  </diagram>
</mxfile>
